<mxfile host="app.diagrams.net" modified="2023-09-15T16:10:17.271Z" agent="Mozilla/5.0 (X11; Ubuntu; Linux x86_64; rv:109.0) Gecko/20100101 Firefox/116.0" version="21.7.4" etag="Y7NfVfv1J5XNkrtJZrgI" type="github">
  <diagram name="Page-1" id="VYAvtYArZAev9FRKBtz2">
    <mxGraphModel>
      <root>
        <mxCell id="0" />
        <mxCell id="1" parent="0" />
      </root>
    </mxGraphModel>
  </diagram>
</mxfile>
